<svg height="512pt" viewBox="-4 0 512 512" width="512pt" xmlns="http://www.w3.org/2000/svg"><path d="m335.605469 0c-21.863281 0-39.648438 17.785156-39.648438 39.648438v42.65625c0 8.464843 6.863281 15.328124 15.332031 15.328124h48.632813c8.46875 0 15.332031-6.863281 15.332031-15.328124v-42.65625c0-21.863282-17.785156-39.648438-39.648437-39.648438zm0 0" fill="#a04202"/><path d="m301.953125 437.535156c-2.847656-4.238281-7.621094-6.78125-12.726563-6.78125h-273.898437c-8.464844 0-15.328125 6.863282-15.328125 15.328125v7.4375c0 31.929688 29.691406 57.910157 66.1875 57.910157h202.597656c6.226563 0 11.835938-3.765626 14.191406-9.53125l20.441407-50.015626c1.929687-4.726562 1.382812-10.105468-1.464844-14.347656zm0 0" fill="#b55424"/><path d="m301.953125 437.535156c-2.847656-4.238281-7.621094-6.78125-12.726563-6.78125h-38.695312v80.675782h18.253906c6.226563 0 11.835938-3.765626 14.191406-9.53125l20.441407-50.015626c1.929687-4.726562 1.382812-10.105468-1.464844-14.347656zm0 0" fill="#a04202"/><path d="m488.574219 430.753906h-168.996094c-4.597656 0-8.953125 2.0625-11.863281 5.621094s-4.070313 8.238281-3.160156 12.746094l10.21875 50.585937c1.445312 7.152344 7.730468 12.292969 15.027343 12.292969h158.773438c8.464843 0 15.332031-6.863281 15.332031-15.328125v-50.589844c-.003906-8.464843-6.867188-15.328125-15.332031-15.328125zm0 0" fill="#a04202"/><path d="m15.328125 461.414062h488.574219v-379.109374c0-8.46875-6.863282-15.332032-15.328125-15.332032h-192.617188l-8.308593 113.28125c-4.886719 57.953125-50.4375 104.191406-108.3125 109.949219l-73.117188 7.269531c-60.554688 6.019532-106.21875 52.492188-106.21875 108.097656v40.511719c0 8.46875 6.863281 15.332031 15.328125 15.332031" fill="#d3695b"/><path d="m488.574219 66.972656h-192.617188l-8.308593 113.28125c-2.5625 30.371094-16.296876 57.523438-37.117188 77.320313v203.839843h253.371094v-379.109374c0-8.46875-6.863282-15.332032-15.328125-15.332032zm0 0" fill="#b75342"/><path d="m177.488281 461.414062h-162.160156c-8.464844 0-15.328125-6.863281-15.328125-15.328124v-40.511719c0-55.605469 45.667969-102.082031 106.222656-108.105469l27.484375-2.726562s43.78125 71.894531 43.78125 166.671874zm0 0" fill="#e58a80"/><path d="m488.574219 66.972656h-143.980469v24.554688c0 43.425781 35.203125 78.628906 78.632812 78.628906h80.675782v-87.851562c0-8.46875-6.863282-15.332032-15.328125-15.332032zm0 0" fill="#d3695b"/><path d="m503.902344 310.929688v-15.101563s-86.414063 6-120.125 85.480469c-14.03125 33.082031-3.59375 80.105468-3.59375 80.105468h123.71875zm0 0" fill="#d3695b"/><g fill="#f94819"><path d="m329.507812 198.429688c-8.46875 0-15.332031-6.863282-15.332031-15.328126v-7.664062c0-8.464844 6.863281-15.332031 15.332031-15.332031 8.464844 0 15.328126 6.867187 15.328126 15.332031v7.664062c0 8.464844-6.863282 15.328126-15.328126 15.328126zm0 0"/><path d="m318.046875 248.667969c-8.46875 0-15.332031-6.863281-15.332031-15.328125v-7.667969c0-8.464844 6.863281-15.328125 15.332031-15.328125 8.464844 0 15.328125 6.863281 15.328125 15.328125v7.667969c0 8.464844-6.863281 15.328125-15.328125 15.328125zm0 0"/><path d="m292.871094 294.496094c-8.464844 0-15.328125-6.863282-15.328125-15.332032v-7.664062c0-8.46875 6.863281-15.332031 15.328125-15.332031 8.46875 0 15.332031 6.863281 15.332031 15.332031v7.664062c0 8.46875-6.863281 15.332032-15.332031 15.332032zm0 0"/></g><path d="m255.519531 328.730469c-8.46875 0-15.332031-6.863281-15.332031-15.332031v-7.660157c0-8.46875 6.863281-15.332031 15.332031-15.332031 8.464844 0 15.328125 6.863281 15.328125 15.332031v7.660157c0 8.46875-6.863281 15.332031-15.328125 15.332031zm0 0" fill="#ff6b43"/><path d="m255.519531 290.40625c-1.75 0-3.421875.308594-4.988281.847656v36.628906c1.566406.539063 3.238281.847657 4.988281.847657 8.464844 0 15.328125-6.863281 15.328125-15.332031v-7.660157c0-8.46875-6.863281-15.332031-15.328125-15.332031zm0 0" fill="#f94819"/></svg>