<?xml version="1.0" encoding="iso-8859-1"?>
<!-- Generator: Adobe Illustrator 19.0.0, SVG Export Plug-In . SVG Version: 6.00 Build 0)  -->
<svg version="1.1" id="Capa_1" xmlns="http://www.w3.org/2000/svg" xmlns:xlink="http://www.w3.org/1999/xlink" x="0px" y="0px"
	 viewBox="0 0 512 512" style="enable-background:new 0 0 512 512;" xml:space="preserve">
<rect x="120.147" y="179.84" style="fill:#FFE475;" width="288.352" height="224.274"/>
<rect x="120.147" y="179.84" style="fill:#FF9900;" width="24.029" height="224.274"/>
<rect x="192.235" y="179.84" style="fill:#FF7956;" width="48.059" height="56.068"/>
<rect x="192.235" y="179.84" style="fill:#FF5023;" width="16.02" height="56.068"/>
<rect x="312.381" y="179.84" style="fill:#FF9900;" width="96.117" height="224.274"/>
<polygon style="fill:#9DD18C;" points="200.244,356.06 200.244,316.011 176.215,316.011 216.264,275.962 256.313,316.011 
	232.284,316.011 232.284,356.06 "/>
<g>
	<rect x="352.43" y="300.487" style="fill:#FFFFFF;" width="16.02" height="15.018"/>
	<rect x="352.43" y="332.526" style="fill:#FFFFFF;" width="16.02" height="15.018"/>
	<rect x="352.43" y="364.565" style="fill:#FFFFFF;" width="16.02" height="15.018"/>
</g>
<rect x="80.098" y="404.113" style="fill:#898890;" width="368.45" height="24.029"/>
<g>
	<circle style="fill:#57565C;" cx="136.166" cy="452.172" r="24.029"/>
	<circle style="fill:#57565C;" cx="392.479" cy="452.172" r="24.029"/>
</g>
<rect x="8.01" y="107.752" style="fill:#898890;" width="80.098" height="24.029"/>
<circle style="fill:#8CE0FF;" cx="360.44" cy="179.84" r="96.117"/>
<path style="fill:#00ACF0;" d="M288.352,179.845c0-49.015,36.69-89.458,84.103-95.371c-3.936-0.491-7.946-0.746-12.015-0.746
	c-53.084,0-96.117,43.034-96.117,96.117s43.034,96.117,96.117,96.117c4.069,0,8.079-0.255,12.015-0.746
	C325.042,269.303,288.352,228.859,288.352,179.845z"/>
<path d="M415.507,267.952h-0.581c29.471-18.291,49.14-50.943,49.14-88.108c0-57.14-46.487-103.376-103.627-103.376
	c-54.615,0-99.492,42.302-103.352,96.368H112.137V397.11H95.116V100.748H0v39.048h80.098V397.11h-8.01v39.048h37.226
	c-2.969,4.005-4.687,10.216-4.687,16.27c0,17.39,14.148,31.413,31.539,31.413s31.538-13.96,31.538-31.351
	c0-6.053-1.718-12.328-4.687-16.333h202.61c-2.969,4.005-4.687,10.216-4.687,16.27c0,17.39,14.148,31.413,31.539,31.413
	s31.539-13.96,31.539-31.351c0-6.053-1.718-12.328-4.687-16.333h36.224v-39.048h-40.049V267.952z M15.018,124.777v-9.011h65.079
	v9.011H15.018z M395.118,261.883c4.919-7.233,9.14-16.959,12.475-25.97h21.81C420.331,246.926,408.577,256.137,395.118,261.883z
	 M448.727,172.836h-32.859c-0.43-12.015-1.855-23.028-4.127-33.04h27.47C444.407,149.808,447.73,160.821,448.727,172.836z
	 M352.43,235.913v30.822c-7.009-3.238-13.847-10.714-19.507-22.033c-1.427-2.853-2.486-5.785-3.696-8.789H352.43z M324.567,220.895
	c-2.515-11.013-4.052-22.027-4.516-33.04h32.379v33.04H324.567z M367.449,266.735v-30.822h24.204
	c-1.21,3.004-2.769,5.935-4.196,8.789C381.796,256.022,375.458,263.498,367.449,266.735z M367.449,220.895v-33.04h33.38
	c-0.464,11.013-2,22.027-4.516,33.04H367.449z M415.868,187.854h32.859c-0.997,11.013-4.32,22.027-9.517,33.04h-27.47
	C414.012,209.881,415.438,198.868,415.868,187.854z M400.828,172.836h-33.38v-33.04h28.864
	C398.828,149.808,400.365,160.821,400.828,172.836z M367.449,124.777V92.954c8.01,3.238,14.348,11.215,20.007,22.534
	c1.427,2.853,2.987,5.284,4.196,9.289H367.449z M352.43,92.954v31.823h-23.202c1.209-4.005,2.269-6.436,3.696-9.289
	C338.583,104.168,345.422,96.192,352.43,92.954z M352.43,139.796v33.04h-32.379c0.464-12.015,1.999-23.028,4.516-33.04H352.43z
	 M305.012,172.836h-32.859c0.997-12.015,4.32-23.028,9.517-33.04h27.47C306.867,149.808,305.442,160.821,305.012,172.836z
	 M305.012,187.854c0.43,11.013,1.854,22.027,4.127,33.04h-27.47c-5.195-11.013-8.519-22.027-9.517-33.04H305.012z M313.286,235.913
	c3.335,9.011,7.556,18.736,12.475,25.97c-13.458-5.746-25.213-14.956-34.286-25.97L313.286,235.913L313.286,235.913z
	 M429.403,124.777h-21.81c-3.335-10.012-7.556-18.737-12.475-25.97C408.577,104.554,420.331,112.763,429.403,124.777z
	 M325.762,98.809c-4.919,7.233-9.14,15.957-12.475,25.97h-21.811C300.549,112.763,312.303,104.554,325.762,98.809z M199.243,187.854
	h33.04v41.05h-33.04V187.854z M127.155,187.854h57.07v56.068h63.077v-56.068h9.786c3.861,53.065,48.487,95.867,103.102,95.867
	c14.383,0,28.285-3.198,40.299-8.517V397.11H319.39V291.981h-15.018V397.11H127.155V187.854z M152.686,452.177
	c0,9.109-7.411,16.52-16.52,16.52s-16.52-7.411-16.52-16.52s7.411-16.52,16.52-16.52S152.686,443.068,152.686,452.177z
	 M408.999,452.177c0,9.109-7.411,16.52-16.52,16.52s-16.52-7.411-16.52-16.52s7.411-16.52,16.52-16.52
	S408.999,443.068,408.999,452.177z M440.538,421.139H87.106v-9.011h353.431V421.139z"/>
<path d="M158.087,324.021h34.148v40.049h47.057v-40.049h35.149l-58.177-58.177L158.087,324.021z M224.274,309.002v40.049h-17.021
	v-40.049h-12.91l21.921-21.921l21.921,21.921H224.274z"/>
<path d="M360.19,28.159c-47.495,0-91.862,22.5-120.898,59.764V75.717h-15.018v40.049h40.049v-15.018H249.34
	c25.513-36.044,66.956-57.32,111.1-57.32c75.359,0,136.667,61.183,136.667,136.542c0,48.64-26.186,93.941-68.338,118.325
	l7.52,12.969C483.067,284.204,512,233.843,512,179.861C512,96.221,443.83,28.159,360.19,28.159z"/>
<g>
</g>
<g>
</g>
<g>
</g>
<g>
</g>
<g>
</g>
<g>
</g>
<g>
</g>
<g>
</g>
<g>
</g>
<g>
</g>
<g>
</g>
<g>
</g>
<g>
</g>
<g>
</g>
<g>
</g>
</svg>
